<?xml version="1.0" standalone="no"?>
<!DOCTYPE svg PUBLIC "-//W3C//DTD SVG 20010904//EN"
 "http://www.w3.org/TR/2001/REC-SVG-20010904/DTD/svg10.dtd">
<svg version="1.0" xmlns="http://www.w3.org/2000/svg"
 width="2048.000000pt" height="1353.000000pt" viewBox="0 0 2048.000000 1353.000000"
 preserveAspectRatio="xMidYMid meet">

<g transform="translate(0.000000,1353.000000) scale(0.100000,-0.100000)"
fill="#000000" stroke="none">
<path d="M5774 11352 c-7 -4 -139 -338 -294 -742 -155 -404 -319 -832 -365
-950 -46 -118 -136 -352 -200 -520 -64 -168 -154 -402 -200 -520 -45 -118
-131 -341 -190 -495 -59 -154 -144 -377 -190 -495 -83 -216 -139 -360 -267
-695 -38 -99 -102 -265 -143 -370 -171 -446 -196 -514 -190 -524 10 -17 749
-15 762 2 10 11 84 213 283 767 289 806 401 1110 407 1110 3 0 47 -16 99 -35
231 -87 500 -123 699 -95 113 16 175 35 374 114 335 133 681 252 706 242 11
-4 87 -184 100 -238 6 -23 3 -28 -17 -32 -98 -20 -175 -40 -185 -49 -22 -16
-15 -46 12 -53 13 -3 72 -4 131 -2 l108 3 42 -105 c24 -58 43 -110 44 -116 0
-8 -36 -10 -127 -7 -216 8 -404 -36 -541 -127 -127 -85 -243 -227 -279 -341
-17 -54 -20 -59 -48 -59 -220 -4 -580 -21 -587 -28 -18 -18 -45 -12 464 -107
136 -25 277 -48 313 -52 56 -5 66 -9 70 -27 9 -46 14 -431 7 -586 -4 -91 -6
-171 -4 -177 3 -9 35 -13 113 -13 l109 0 2 190 3 190 85 -193 c83 -186 86
-192 116 -195 30 -3 33 0 60 65 86 206 144 337 145 328 1 -5 1 -95 -1 -198
l-2 -188 117 3 118 3 -1 405 0 405 -103 3 c-56 1 -106 -1 -111 -6 -4 -4 -52
-100 -106 -213 -60 -124 -104 -204 -112 -204 -9 0 -52 81 -112 210 l-98 210
-105 3 c-59 1 -105 7 -105 12 0 6 13 38 30 72 66 142 185 246 335 295 148 49
446 42 481 -11 8 -13 115 -283 237 -602 l223 -579 407 -3 c323 -2 409 0 412
11 3 7 -117 309 -266 672 -323 788 -419 1025 -419 1038 0 11 86 3 305 -28 155
-23 281 -49 425 -90 250 -71 308 -83 455 -99 227 -25 608 -38 915 -31 305 7
954 38 1270 60 113 8 237 17 275 20 39 3 131 9 205 15 74 5 212 14 305 20 94
5 204 12 245 15 41 3 147 10 235 15 88 6 259 18 380 27 175 12 303 14 620 9
220 -3 452 -10 515 -16 349 -29 810 -149 1316 -341 52 -20 64 -21 78 -10 25
21 19 37 -26 74 -274 222 -725 395 -1213 465 -205 30 -213 31 -415 47 -218 18
-830 20 -1145 5 -177 -9 -709 -48 -880 -65 -134 -14 -595 -56 -710 -65 -71 -5
-159 -12 -195 -15 -36 -3 -135 -12 -220 -20 -306 -28 -595 -38 -942 -32 -383
6 -421 10 -728 82 -355 83 -633 122 -952 132 l-196 6 -51 121 c-59 143 -103
257 -99 261 4 4 244 41 383 60 61 8 202 21 315 30 113 8 264 20 335 25 166 13
645 13 829 0 77 -5 247 -17 376 -26 561 -38 1264 -152 1930 -312 163 -40 200
-42 200 -9 -1 30 -16 38 -200 104 -297 105 -797 233 -1240 317 -247 46 -409
70 -675 101 -152 17 -233 25 -320 30 -55 4 -113 8 -130 11 -16 3 -192 7 -390
11 -390 6 -419 5 -955 -58 -213 -25 -506 -64 -542 -72 -5 -1 -148 338 -318
753 -171 415 -332 809 -359 875 -27 66 -147 359 -267 650 -119 292 -221 536
-226 543 -8 9 -97 12 -382 12 -204 0 -376 -4 -382 -8z m425 -832 c69 -214 171
-501 314 -880 187 -496 310 -821 396 -1049 45 -118 78 -218 74 -222 -4 -4 -43
-17 -85 -28 -222 -62 -484 -156 -702 -252 -202 -90 -246 -105 -348 -120 -104
-15 -302 -6 -423 20 -180 39 -195 43 -195 55 0 7 18 62 39 122 51 142 453
1218 538 1439 123 320 257 756 309 1008 10 48 21 84 24 79 4 -4 30 -81 59
-172z"/>
<path d="M13345 7503 c-237 -50 -420 -203 -526 -440 l-29 -66 -1099 5 c-605 3
-1105 2 -1112 -3 -9 -5 -10 -11 -4 -18 10 -9 297 -28 1075 -71 107 -6 290 -18
405 -26 116 -8 338 -23 495 -34 157 -11 310 -22 341 -26 l57 -6 12 39 c47 143
158 291 260 347 170 92 407 108 622 40 259 -82 516 -266 621 -445 118 -200
100 -406 -49 -554 -58 -58 -139 -116 -221 -160 -80 -41 -61 -64 23 -29 367
152 535 365 495 632 -22 144 -84 260 -211 395 -208 220 -484 375 -754 422
-111 19 -308 18 -401 -2z"/>
<path d="M3650 7249 c-102 -3 -237 -8 -300 -9 l-115 -3 90 -8 c50 -4 212 -15
360 -23 149 -9 303 -19 343 -22 l72 -6 15 36 c8 19 15 38 15 41 0 6 -233 4
-480 -6z"/>
<path d="M15437 7148 c-80 -144 -129 -271 -142 -369 -9 -63 10 -127 50 -164
48 -46 99 -57 219 -49 l103 7 6 -29 c3 -16 -1 -65 -9 -109 -7 -44 -14 -81 -14
-82 0 -2 7 -3 16 -3 9 0 28 27 47 68 26 54 32 82 35 147 3 71 1 84 -20 115
-30 46 -94 77 -175 86 -62 6 -66 8 -79 40 -16 39 -18 160 -4 254 6 36 13 84
16 108 9 60 -8 53 -49 -20z"/>
<path d="M3138 6990 c-344 -3 -630 -8 -634 -12 -4 -5 24 -8 62 -8 38 0 166 -5
284 -10 118 -5 397 -16 620 -24 223 -9 433 -18 467 -21 l63 -6 15 37 c8 20 15
40 15 45 0 5 -60 8 -132 7 -73 -1 -415 -5 -760 -8z"/>
<path d="M4894 6842 c-8 -5 -12 -121 -12 -409 l1 -403 211 0 c275 0 333 15
422 106 56 58 102 152 116 237 28 172 -60 362 -200 427 -26 12 -81 29 -122 36
-79 14 -397 19 -416 6z m384 -178 c89 -37 131 -109 132 -225 0 -61 -5 -85 -26
-128 -37 -74 -84 -103 -177 -108 -40 -2 -79 1 -87 6 -13 9 -15 46 -15 231 0
185 2 222 15 230 23 15 117 12 158 -6z"/>
<path d="M5971 6828 c-176 -473 -281 -763 -281 -779 0 -19 6 -20 112 -17 l112
3 21 55 21 55 134 0 135 0 18 -57 18 -58 119 0 c65 0 121 3 124 8 6 10 -258
703 -299 781 l-16 31 -105 0 c-99 0 -105 -1 -113 -22z m181 -451 l3 -32 -67
-3 c-80 -3 -81 -3 -44 104 50 144 44 141 77 46 15 -45 29 -97 31 -115z"/>
<path d="M3101 6689 c-166 -4 -306 -10 -309 -13 -3 -3 28 -6 69 -6 41 0 193
-7 339 -15 146 -7 337 -17 425 -20 88 -3 183 -8 212 -11 l52 -5 16 37 c8 20
15 38 15 40 0 6 -477 2 -819 -7z"/>
<path d="M11615 6479 c-418 -4 -938 -11 -1155 -15 l-395 -8 280 -7 c154 -4
379 -10 500 -13 1185 -33 1622 -45 1928 -52 l288 -7 -10 27 c-6 14 -18 40 -26
56 l-16 30 -317 -2 c-174 -1 -659 -5 -1077 -9z"/>
<path d="M3242 6450 c-128 -4 -235 -10 -238 -12 -2 -3 49 -8 113 -12 65 -4
244 -15 398 -25 154 -10 281 -18 282 -17 1 1 9 19 18 39 l15 37 -177 -2 c-98
-1 -283 -4 -411 -8z"/>
<path d="M12495 6260 l-300 -5 145 -13 c80 -7 320 -31 535 -52 214 -22 391
-38 393 -36 1 2 -9 29 -25 60 l-27 56 -211 -2 c-115 -2 -345 -5 -510 -8z"/>
<path d="M3435 6220 c-66 -4 -147 -8 -180 -9 -33 -2 -55 -4 -50 -6 6 -2 102
-13 215 -24 113 -12 224 -23 248 -27 41 -5 43 -4 57 30 8 19 15 38 15 41 0 6
-144 4 -305 -5z"/>
<path d="M15075 5882 c-82 -9 -153 -20 -157 -26 -4 -6 -4 -109 -1 -228 3 -120
3 -218 -2 -218 -4 0 -25 16 -46 35 -112 101 -334 79 -458 -46 -25 -25 -60 -76
-79 -118 -32 -67 -36 -84 -40 -180 -2 -60 1 -130 7 -161 26 -123 110 -231 221
-284 59 -28 74 -31 160 -31 102 1 157 18 226 70 37 28 44 24 44 -26 0 -24 5
-39 16 -43 23 -9 257 -7 271 2 9 6 9 34 1 117 -10 111 -4 935 8 1083 5 57 4
72 -7 70 -8 0 -81 -8 -164 -16z m-227 -669 c129 -97 85 -303 -70 -320 -61 -7
-110 16 -145 68 -23 35 -28 53 -28 104 0 111 68 179 168 172 27 -3 60 -13 75
-24z"/>
<path d="M4100 5875 c-4 -5 -21 -48 -38 -95 -17 -47 -107 -294 -200 -550 -197
-539 -209 -577 -196 -590 15 -15 177 -23 264 -13 l75 8 25 78 c14 43 32 82 40
87 8 5 97 10 197 10 205 0 203 1 222 -77 23 -90 29 -97 101 -106 78 -10 280
-1 293 12 7 7 0 38 -18 88 -98 273 -424 1110 -443 1141 -11 16 -309 23 -322 7z
m185 -462 c26 -63 75 -239 75 -272 l0 -31 -95 0 c-75 0 -97 3 -101 15 -8 20
88 325 102 325 2 0 11 -17 19 -37z"/>
<path d="M8113 5733 c17 -338 19 -539 7 -801 -9 -214 -9 -287 -1 -295 17 -17
323 -16 343 0 12 11 14 46 10 226 l-5 214 48 18 c40 16 48 16 56 4 17 -26 145
-253 197 -350 29 -53 59 -103 69 -110 23 -20 313 -20 336 0 41 33 9 105 -185
425 l-121 199 29 20 c58 41 114 110 158 197 50 96 126 308 126 353 l0 27 -164
0 -164 0 -52 -142 c-29 -79 -65 -168 -81 -199 -46 -92 -116 -139 -207 -139
-51 0 -54 22 -44 259 4 114 7 209 4 214 -2 4 -85 7 -184 7 l-181 0 6 -127z"/>
<path d="M6065 5749 c-3 -13 -6 -87 -8 -164 -2 -131 -3 -140 -22 -143 -71 -10
-66 -1 -63 -125 l3 -112 35 -3 c63 -6 63 -4 55 -232 -6 -201 -6 -206 17 -250
13 -25 38 -55 56 -67 89 -59 281 -54 409 11 l50 25 8 101 c3 56 4 104 1 107
-3 3 -34 0 -69 -7 -81 -16 -132 -7 -154 27 -14 22 -18 50 -18 147 l0 121 108
3 107 3 0 67 c0 37 3 97 6 134 l7 67 -114 3 -114 3 0 130 0 130 -110 16 c-60
9 -127 20 -147 24 -34 6 -38 5 -43 -16z"/>
<path d="M12625 5749 c-3 -13 -6 -87 -8 -164 -2 -131 -3 -140 -22 -143 -71
-10 -66 -1 -63 -125 l3 -112 35 -3 c63 -6 63 -4 55 -232 -6 -201 -6 -206 17
-250 13 -25 38 -55 56 -67 89 -59 281 -54 409 11 l50 25 8 101 c3 56 4 104 1
107 -3 3 -34 0 -69 -7 -81 -16 -132 -7 -154 27 -14 22 -18 50 -18 147 l0 121
108 3 107 3 0 67 c0 37 3 97 6 134 l7 67 -114 3 -114 3 0 130 0 130 -110 16
c-60 9 -127 20 -147 24 -34 6 -38 5 -43 -16z"/>
<path d="M15425 5749 c-3 -13 -6 -87 -8 -164 -2 -131 -3 -140 -22 -143 -71
-10 -66 -1 -63 -125 l3 -112 35 -3 c63 -6 63 -4 55 -232 -6 -201 -6 -206 17
-250 13 -25 38 -55 56 -67 89 -59 281 -54 409 11 l50 25 8 101 c3 56 4 104 1
107 -3 3 -34 0 -69 -7 -81 -16 -132 -7 -154 27 -14 22 -18 50 -18 147 l0 121
108 3 107 3 0 67 c0 37 3 97 6 134 l7 67 -114 3 -114 3 0 130 0 130 -110 16
c-60 9 -127 20 -147 24 -34 6 -38 5 -43 -16z"/>
<path d="M12243 5540 c-107 -22 -237 -114 -274 -195 -22 -48 -25 -142 -5 -189
7 -18 39 -61 71 -97 69 -77 90 -117 81 -153 -9 -36 -53 -60 -136 -75 -39 -7
-70 -18 -70 -23 0 -19 67 -132 103 -173 l34 -40 64 13 c87 18 200 74 253 125
32 30 48 57 60 96 33 111 14 174 -85 291 -56 66 -69 89 -69 116 0 58 52 94
135 94 24 0 47 5 50 10 7 11 -51 125 -91 178 -27 34 -42 37 -121 22z"/>
<path d="M6990 5496 c-148 -32 -262 -140 -303 -286 -36 -126 -29 -254 18 -358
33 -73 115 -156 190 -193 174 -85 400 -53 528 75 165 165 167 481 5 648 -104
106 -273 150 -438 114z m191 -279 c56 -38 80 -91 77 -168 -3 -54 -9 -73 -31
-103 -39 -50 -80 -69 -135 -63 -88 10 -147 89 -140 189 9 133 132 211 229 145z"/>
<path d="M10260 5496 c-148 -32 -262 -140 -303 -286 -36 -126 -29 -254 18
-358 33 -73 115 -156 190 -193 174 -85 400 -53 528 75 165 165 167 481 5 648
-104 106 -273 150 -438 114z m191 -279 c56 -38 80 -91 77 -168 -3 -54 -9 -73
-31 -103 -39 -50 -80 -69 -135 -63 -88 10 -147 89 -140 189 9 133 132 211 229
145z"/>
<path d="M9430 5475 c-63 -13 -127 -24 -142 -24 -33 -1 -33 -4 -12 -96 12 -52
18 -152 23 -395 l6 -325 153 -3 c118 -2 152 0 153 10 0 7 0 112 -1 234 -2 279
-8 267 142 273 63 2 106 8 111 15 4 6 5 38 2 71 -2 33 -1 97 3 143 6 64 5 86
-5 94 -30 24 -150 -11 -274 -79 -3 -2 -9 20 -15 49 -5 28 -13 52 -19 53 -5 1
-62 -8 -125 -20z"/>
<path d="M11190 5496 c-3 -2 -66 -14 -140 -26 -74 -13 -138 -26 -142 -29 -4
-4 -1 -38 8 -76 12 -53 17 -149 21 -402 5 -328 6 -331 27 -337 42 -11 262 -6
274 6 9 9 12 83 12 269 l0 258 37 30 c65 54 136 53 177 -2 20 -27 21 -40 21
-287 0 -142 4 -262 8 -267 5 -4 70 -9 146 -11 113 -3 140 -1 150 12 10 11 12
94 9 358 -3 334 -4 344 -26 385 -26 49 -79 88 -148 109 -98 29 -191 10 -312
-66 -35 -23 -66 -40 -67 -38 -2 2 -7 28 -12 58 -5 37 -13 56 -24 58 -8 1 -17
1 -19 -2z"/>
<path d="M13535 5487 c-27 -7 -74 -26 -104 -42 -235 -128 -273 -524 -70 -727
125 -125 302 -141 436 -39 28 22 54 37 57 34 3 -4 6 -18 6 -33 0 -14 6 -34 13
-45 13 -17 23 -17 148 -9 l134 9 -3 295 c-2 214 1 322 11 395 12 84 12 102 1
111 -16 13 -170 46 -221 48 -32 1 -37 -3 -45 -29 -5 -16 -11 -36 -14 -43 -3
-10 -13 -6 -35 13 -58 48 -108 67 -188 71 -42 2 -98 -2 -126 -9z m229 -271
c112 -47 136 -198 45 -280 -82 -75 -214 -52 -265 46 -22 42 -16 144 11 181 43
58 138 83 209 53z"/>
<path d="M5022 5462 c-28 -18 -45 -151 -45 -352 0 -273 19 -360 97 -427 47
-42 97 -58 186 -58 82 0 144 23 235 85 26 18 48 30 49 28 1 -1 7 -25 12 -53
l9 -50 140 -2 c77 -2 145 0 151 5 8 5 13 129 16 415 4 406 4 408 -16 413 -12
2 -84 3 -161 2 l-140 -3 -5 -258 -5 -259 -37 -33 c-20 -19 -49 -37 -64 -41
-40 -10 -94 7 -117 38 -31 42 -43 199 -28 386 6 84 9 157 6 162 -7 12 -265 13
-283 2z"/>
</g>
</svg>
